<?xml version="1.0" encoding="UTF-8"?>
<svg id="cohort_icon" xmlns="http://www.w3.org/2000/svg" viewBox="0 0 400 400">
  <defs>
    <style>
      .cls-1 {
        fill: #2b4a45;
      }
    </style>
  </defs>
  <path class="cls-1" d="M93.45,321.02h-9.53c-18.3,0-20.54-15.19-20.54-33.49,0-90.07-2.74-90.07-2.74-180.15,0-18.3,14.52-35.56,32.81-35.56h7.2c18.3,0,26.99,17.26,26.99,35.56,0,90.07,1.45,90.07,1.45,180.15,0,18.3-17.34,33.49-35.63,33.49Z"/>
  <path class="cls-1" d="M311.71,321.02h-5.62c-18.3,0-24.46-15.19-24.46-33.49,0-90.07-2.74-90.07-2.74-180.15,0-18.3,14.52-35.56,32.81-35.56h6.12c18.3,0,28.07,17.26,28.07,35.56,0,90.07,1.45,90.07,1.45,180.15,0,18.3-17.34,33.49-35.63,33.49Z"/>
  <path class="cls-1" d="M208.17,317.12l-7.09-.03c-18.3,0-30.44-11.26-30.44-29.56,0-90.07,4.42-90.07,4.42-180.15,0-18.3,14.82-34.84,33.12-34.84l7.35-.27c18.3,0,28.14,16.81,28.14,35.1,0,90.07-5.07,90.07-5.07,180.15,0,18.3-12.13,29.59-30.42,29.59Z"/>
</svg>