<?xml version="1.0" encoding="UTF-8"?>
<svg id="link_icon" xmlns="http://www.w3.org/2000/svg" viewBox="0 0 400 400">
  <defs>
    <style>
      .cls-1 {
        fill: #2b4a45;
      }
    </style>
  </defs>
  <path class="cls-1" d="M141.92,271.76c-5.5,0-11-2.11-15.18-6.32-8.33-8.39-8.28-21.93.11-30.26l97.97-97.27c8.39-8.32,21.93-8.28,30.26.11,8.33,8.39,8.28,21.93-.11,30.26l-97.97,97.27c-4.17,4.14-9.62,6.21-15.08,6.21Z"/>
  <path class="cls-1" d="M287.71,228.5c-6.27,0-12.48-2.74-16.7-8.01-7.4-9.22-5.92-22.68,3.3-30.08,7.98-6.43,21.36-19.2,24.69-26.16,7.78-16.3,12.22-40.56-10.83-63.61-8.7-8.7-20.44-11.73-35.88-9.26-13.96,2.22-27.2,8.68-38.31,18.67l-17.45,15.7c-8.79,7.9-22.32,7.19-30.22-1.6-7.9-8.79-7.19-22.31,1.6-30.22l17.45-15.7c17.25-15.52,38.06-25.58,60.19-29.11,29.11-4.64,54.32,2.71,72.88,21.27,30.86,30.86,38.03,72.84,19.18,112.31-8.69,18.19-31.95,37.43-36.52,41.1-3.95,3.17-8.68,4.71-13.38,4.71Z"/>
  <path class="cls-1" d="M128.81,345.1c-22.14,0-41.39-7.68-56.33-22.62-30.86-30.86-38.03-72.84-19.18-112.31,8.69-18.2,31.95-37.43,36.53-41.1,9.22-7.4,22.68-5.92,30.08,3.3,7.4,9.22,5.92,22.68-3.3,30.08-7.98,6.43-21.36,19.2-24.69,26.16-7.78,16.3-12.22,40.56,10.83,63.61,8.7,8.7,20.43,11.73,35.88,9.27,13.96-2.22,27.2-8.68,38.3-18.67l17.45-15.7c8.79-7.9,22.32-7.19,30.22,1.6,7.9,8.79,7.19,22.31-1.6,30.22l-17.45,15.7c-17.25,15.52-38.06,25.58-60.19,29.11-5.67.9-11.2,1.35-16.55,1.35Z"/>
</svg>