<?xml version="1.0" encoding="UTF-8"?>
<svg id="search_icon" xmlns="http://www.w3.org/2000/svg" xmlns:xlink="http://www.w3.org/1999/xlink" viewBox="0 0 10 10">
  <defs>
    <style>
      .cls-1 {
        fill: #fff4e3;
      }

      .cls-2 {
        fill: url(#radial-gradient);
      }

      .cls-3 {
        fill: #a1422b;
      }
    </style>
    <radialGradient id="radial-gradient" cx="3369.19" cy="1.81" fx="3369.19" fy="1.81" r="1.18" gradientTransform="translate(3374.19 6.11) rotate(180) scale(1 -.43)" gradientUnits="userSpaceOnUse">
      <stop offset="0" stop-color="#2a1000" stop-opacity=".7"/>
      <stop offset=".04" stop-color="#280f00" stop-opacity=".66"/>
      <stop offset=".54" stop-color="#0d0400" stop-opacity=".22"/>
      <stop offset=".94" stop-color="#000" stop-opacity="0"/>
    </radialGradient>
  </defs>
  <ellipse class="cls-2" cx="5" cy="7.18" rx="1.53" ry=".54"/>
  <path class="cls-1" d="M5.12,6.67l.22-2.69c0-.07-.05-.13-.12-.13h-.44c-.07,0-.12.06-.12.13l.22,2.69c.01.14.22.14.23,0Z"/>
  <g>
    <circle class="cls-3" cx="5" cy="3.16" r="1.21"/>
    <path class="cls-1" d="M5,4.41c-.69,0-1.25-.56-1.25-1.25s.56-1.25,1.25-1.25,1.25.56,1.25,1.25-.56,1.25-1.25,1.25ZM5,2c-.64,0-1.16.52-1.16,1.16s.52,1.16,1.16,1.16,1.16-.52,1.16-1.16-.52-1.16-1.16-1.16Z"/>
  </g>
  <path class="cls-1" d="M4.78,2.28c-.09-.04-.26,0-.28.02-.24.07-.42.33-.45.49-.02.1.01.2.07.19.08,0,.11-.19.31-.29.15-.07.3-.16.39-.23.09-.07.07-.13-.04-.18Z"/>
</svg>