<?xml version="1.0" encoding="UTF-8"?>
<svg xmlns="http://www.w3.org/2000/svg" xmlns:xlink="http://www.w3.org/1999/xlink" viewBox="0 0 184.55 184.55">
  <defs>
    <style>
      .cls-1 {
        fill: #fff4e3;
      }

      .cls-2 {
        fill: url(#radial-gradient-2);
      }

      .cls-3 {
        fill: url(#radial-gradient);
      }

      .cls-4 {
        fill: #a1422b;
      }
    </style>
    <radialGradient id="radial-gradient" cx="3541.02" cy="147.68" fx="3541.02" fy="147.68" r="47.46" gradientTransform="translate(3633.29 88.07) rotate(180) scale(1 -.43)" gradientUnits="userSpaceOnUse">
      <stop offset="0" stop-color="#2a1000" stop-opacity=".7"/>
      <stop offset=".56" stop-color="#0c0400" stop-opacity=".21"/>
      <stop offset=".94" stop-color="#000" stop-opacity="0"/>
    </radialGradient>
    <radialGradient id="radial-gradient-2" cx="3541.02" cy="147.68" fx="3541.02" fy="147.68" r="47.46" gradientTransform="translate(-3448.74 88.07) scale(1 .43)" xlink:href="#radial-gradient"/>
  </defs>
  <g id="pin_left">
    <g>
      <ellipse class="cls-3" cx="92.28" cy="152.59" rx="61.83" ry="21.78"/>
      <g>
        <path class="cls-1" d="M52.91,53.84c2.14-.88,4.2-1.93,6.2-1.93,9.03,0,14.16,6.32,14.8,12.95.74-7.53-4.48-15.79-14.8-15.79-2,0-4.06,1.05-6.2,1.93-3.48,1.43-7.5-.46-8.56-4.07-.04-.14-.06-.23-.06-.27v2.84s.02.13.06.27c1.07,3.61,5.08,5.5,8.56,4.07Z"/>
        <path class="cls-1" d="M111.14,33.14c.06-.65.1-1.33.1-2.03,0-3.18-5.12-8.52-5.33-10.54-.03-.27-.03-.51-.02-.75-.12,1.38.08,3.11.23,4.56.17,1.56,3.68,5.96,5.02,8.76Z"/>
        <path class="cls-1" d="M107.02,17.49c-.57.24-.88.83-1.04,1.61.17-.7.55-1.22,1.04-1.61Z"/>
        <path class="cls-1" d="M106.22,132.45c-1.48,13.44-23.98,12.1-25.65.05-.09.66-.13,1.36-.08,2.1.89,13.43,26.88,14.54,25.78-1.73,0-.14-.03-.28-.05-.42Z"/>
        <path class="cls-1" d="M84.76,118.07c.05-.43.08-.87.08-1.33,0-5.21-2.11-4.27-5.72-4.27h-27.54c-4.03,0-7.3-3.27-7.3-7.3v2.84c0,4.03,3.27,7.3,7.3,7.3h27.54c3.22,0,5.23-.73,5.64,2.77Z"/>
        <path class="cls-1" d="M132.98,112.47h-25.99c-.94,0-3.96.99-3.96,5.51,0,.48.04.96.11,1.44.55-3.33,3.01-4.11,3.84-4.11h25.99c4.03,0,7.3-3.27,7.3-7.3v-2.84c0,4.03-3.27,7.3-7.3,7.3Z"/>
      </g>
      <g>
        <path class="cls-4" d="M93.92,141.68c-6.19,0-12.68-3.43-13.11-9.98-.19-2.91.9-5.05,2.05-7.32,1.13-2.23,2.3-4.53,2.3-7.69,0-3.92-1.23-4.66-3.51-4.66-.35,0-.72.01-1.12.03-.44.02-.92.04-1.42.04h-27.54c-3.85,0-6.97-3.13-6.97-6.97v-29.75c.34-2.28,1.43-3.46,3.23-3.46.16,0,.33,0,.5.03.77.08,2.23,1.06,3.78,2.09,2.28,1.52,4.86,3.25,6.8,3.25,4.83,0,8.85-1.49,11.61-4.31,2.44-2.49,3.78-5.89,3.78-9.57,0-7.3-5.22-14.69-15.19-14.69-1.73,0-3.45.73-5.26,1.51-.35.15-.7.3-1.06.45-.74.3-1.51.46-2.3.46-2.68,0-5.08-1.78-5.83-4.32-.03-.09-.05-.16-.05-.19v-22.88c0-3.85,3.13-6.97,6.97-6.97h29.32s.09.02.18.05c1.62.48,2.97,1.64,3.71,3.18.75,1.56.8,3.37.15,4.95-.15.35-.3.71-.45,1.06-.78,1.82-1.51,3.53-1.51,5.26,0,4.59,1.6,8.5,4.62,11.3,2.67,2.47,6.34,3.89,10.07,3.89h0c6.91,0,13.88-4.76,13.88-15.39,0-1.93-1.72-4.52-3.25-6.8-1.03-1.54-2-3-2.09-3.78-.22-2.1.95-3.36,3.48-3.74h23.27c3.85,0,6.97,3.13,6.97,6.98v81.4c0,3.85-3.13,6.97-6.97,6.97h-25.99c-.9,0-4.28.99-4.28,5.83,0,2.31.88,4.59,1.73,6.79.72,1.86,1.4,3.62,1.51,5.29.22,3.27-.64,5.97-2.56,8.03-2.16,2.31-5.61,3.63-9.46,3.63Z"/>
        <path class="cls-1" d="M132.98,17.08c3.67,0,6.65,2.98,6.65,6.65v81.4c0,3.67-2.98,6.65-6.65,6.65h-25.99c-1.5,0-4.6,1.5-4.6,6.16,0,2.37.89,4.68,1.75,6.91.71,1.84,1.38,3.58,1.49,5.19.21,3.18-.62,5.8-2.48,7.78-2.1,2.24-5.46,3.53-9.22,3.53-3.14,0-6.27-.92-8.59-2.53-1.78-1.24-3.96-3.48-4.2-7.14-.19-2.82.88-4.93,2.02-7.15,1.15-2.26,2.34-4.59,2.34-7.83,0-4.17-1.4-4.98-3.83-4.98-.36,0-.73.01-1.13.03-.45.02-.92.04-1.41.04h-27.54c-3.67,0-6.65-2.98-6.65-6.65v-29.7c.49-3.18,2.3-3.19,2.9-3.19h0c.15,0,.31,0,.47.03.69.07,2.19,1.07,3.63,2.03,2.32,1.55,4.94,3.3,6.98,3.3,4.92,0,9.02-1.52,11.84-4.41,2.5-2.55,3.87-6.03,3.87-9.8s-1.45-7.57-3.98-10.29c-2.87-3.09-6.86-4.72-11.54-4.72-1.8,0-3.62.78-5.39,1.54-.35.15-.7.3-1.06.45-.7.29-1.43.43-2.18.43-2.54,0-4.81-1.68-5.52-4.09-.02-.05-.03-.1-.04-.13v-22.85c0-3.67,2.98-6.65,6.65-6.65h29.27s.08.02.13.04c1.53.45,2.81,1.55,3.51,3.01.71,1.48.76,3.19.14,4.69-.15.35-.3.71-.44,1.05-.76,1.77-1.54,3.59-1.54,5.39,0,4.68,1.63,8.67,4.72,11.54,2.73,2.53,6.48,3.98,10.29,3.98,7.07,0,14.21-4.86,14.21-15.71,0-2.03-1.75-4.66-3.3-6.98-.96-1.44-1.96-2.94-2.03-3.63-.07-.7-.3-2.84,3.16-3.38h23.27M132.98,16.43h-23.32c-2.02.3-4.05,1.28-3.75,4.09.21,2.02,5.33,7.36,5.33,10.54,0,10.26-6.72,15.07-13.56,15.07s-14.37-5.2-14.37-14.87c0-2,1.05-4.06,1.93-6.2,1.43-3.48-.46-7.5-4.07-8.56-.14-.04-.23-.06-.27-.06h-29.32c-4.03,0-7.3,3.27-7.3,7.3v22.89s.02.13.06.27c.82,2.79,3.4,4.55,6.14,4.55.81,0,1.63-.15,2.42-.48,2.13-.88,4.2-1.93,6.2-1.93,18.98,0,20.72,27.93-.2,27.93-3.18,0-8.52-5.12-10.54-5.33-.19-.02-.36-.03-.54-.03-2.4,0-3.27,1.89-3.55,3.78v29.75c0,4.03,3.27,7.3,7.3,7.3h27.54c.96,0,1.81-.07,2.54-.07,2.04,0,3.18.51,3.18,4.34,0,6.27-4.74,9.12-4.35,15.02.44,6.65,7.03,10.28,13.43,10.28s12.9-3.78,12.35-12.01c-.25-3.71-3.24-7.88-3.24-12.06,0-4.52,3.02-5.51,3.96-5.51h25.99c4.03,0,7.3-3.27,7.3-7.3V23.73c0-4.03-3.27-7.3-7.3-7.3h0Z"/>
      </g>
    </g>
  </g>
  <g id="pin_right">
    <g>
      <ellipse class="cls-2" cx="92.28" cy="152.59" rx="61.83" ry="21.78"/>
      <g>
        <path class="cls-1" d="M131.65,53.84c-2.14-.88-4.2-1.93-6.2-1.93-9.03,0-14.16,6.32-14.8,12.95-.74-7.53,4.48-15.79,14.8-15.79,2,0,4.06,1.05,6.2,1.93,3.48,1.43,7.5-.46,8.56-4.07.04-.14.06-.23.06-.27v2.84s-.02.13-.06.27c-1.07,3.61-5.08,5.5-8.56,4.07Z"/>
        <path class="cls-1" d="M73.42,33.14c-.06-.65-.1-1.33-.1-2.03,0-3.18,5.12-8.52,5.33-10.54.03-.27.03-.51.02-.75.12,1.38-.08,3.11-.23,4.56-.17,1.56-3.68,5.96-5.02,8.76Z"/>
        <path class="cls-1" d="M77.53,17.49c.57.24.88.83,1.04,1.61-.17-.7-.55-1.22-1.04-1.61Z"/>
        <path class="cls-1" d="M78.33,132.45c1.48,13.44,23.98,12.1,25.65.05.09.66.13,1.36.08,2.1-.89,13.43-26.88,14.54-25.78-1.73,0-.14.03-.28.05-.42Z"/>
        <path class="cls-1" d="M99.79,118.07c-.05-.43-.08-.87-.08-1.33,0-5.21,2.11-4.27,5.72-4.27h27.54c4.03,0,7.3-3.27,7.3-7.3v2.84c0,4.03-3.27,7.3-7.3,7.3h-27.54c-3.22,0-5.23-.73-5.64,2.77Z"/>
        <path class="cls-1" d="M51.58,112.47h25.99c.94,0,3.96.99,3.96,5.51,0,.48-.04.96-.11,1.44-.55-3.33-3.01-4.11-3.84-4.11h-25.99c-4.03,0-7.3-3.27-7.3-7.3v-2.84c0,4.03,3.27,7.3,7.3,7.3Z"/>
      </g>
      <g>
        <path class="cls-4" d="M90.63,141.68c6.19,0,12.68-3.43,13.11-9.98.19-2.91-.9-5.05-2.05-7.32-1.13-2.23-2.3-4.53-2.3-7.69,0-3.92,1.23-4.66,3.51-4.66.35,0,.72.01,1.12.03.44.02.92.04,1.42.04h27.54c3.85,0,6.97-3.13,6.97-6.97v-29.75c-.34-2.28-1.43-3.46-3.23-3.46-.16,0-.33,0-.5.03-.77.08-2.23,1.06-3.78,2.09-2.28,1.52-4.86,3.25-6.8,3.25-4.83,0-8.85-1.49-11.61-4.31-2.44-2.49-3.78-5.89-3.78-9.57,0-7.3,5.22-14.69,15.19-14.69,1.73,0,3.45.73,5.26,1.51.35.15.7.3,1.06.45.74.3,1.51.46,2.3.46,2.68,0,5.08-1.78,5.83-4.32.03-.09.05-.16.05-.19v-22.88c0-3.85-3.13-6.97-6.97-6.97h-29.32s-.09.02-.18.05c-1.62.48-2.97,1.64-3.71,3.18-.75,1.56-.8,3.37-.15,4.95.15.35.3.71.45,1.06.78,1.82,1.51,3.53,1.51,5.26,0,4.59-1.6,8.5-4.62,11.3-2.67,2.47-6.34,3.89-10.07,3.89h0c-6.91,0-13.88-4.76-13.88-15.39,0-1.93,1.72-4.52,3.25-6.8,1.03-1.54,2-3,2.09-3.78.22-2.1-.95-3.36-3.48-3.74h-23.27c-3.85,0-6.97,3.13-6.97,6.98v81.4c0,3.85,3.13,6.97,6.97,6.97h25.99c.9,0,4.28.99,4.28,5.83,0,2.31-.88,4.59-1.73,6.79-.72,1.86-1.4,3.62-1.51,5.29-.22,3.27.64,5.97,2.56,8.03,2.16,2.31,5.61,3.63,9.46,3.63Z"/>
        <path class="cls-1" d="M51.58,17.08h23.27c3.46.54,3.23,2.67,3.16,3.38-.07.69-1.07,2.19-2.03,3.63-1.55,2.32-3.3,4.95-3.3,6.98,0,10.85,7.13,15.71,14.21,15.71,3.82,0,7.57-1.45,10.29-3.98,3.09-2.87,4.72-6.86,4.72-11.54,0-1.8-.78-3.62-1.54-5.39-.15-.35-.3-.7-.44-1.05-.62-1.5-.57-3.21.14-4.69.7-1.46,1.98-2.56,3.51-3.01.05-.02.1-.03.13-.04h29.27c3.67,0,6.65,2.98,6.65,6.65v10.65s0,12.2,0,12.2c0,.03-.02.08-.04.13-.71,2.41-2.98,4.09-5.52,4.09-.75,0-1.48-.15-2.18-.43-.35-.15-.71-.3-1.06-.45-1.77-.75-3.59-1.54-5.39-1.54-4.68,0-8.67,1.63-11.54,4.72-2.53,2.73-3.98,6.48-3.98,10.29s1.37,7.25,3.87,9.8c2.83,2.88,6.92,4.41,11.84,4.41,2.03,0,4.66-1.75,6.98-3.3,1.44-.96,2.94-1.96,3.63-2.03.16-.02.32-.03.47-.03h0c.61,0,2.41.01,2.9,3.19v3.71s0,7.19,0,7.19v12.78s0,6.02,0,6.02c0,3.67-2.98,6.65-6.65,6.65h-27.54c-.5,0-.96-.02-1.41-.04-.4-.02-.77-.03-1.13-.03-2.42,0-3.83.82-3.83,4.98,0,3.24,1.19,5.57,2.34,7.83,1.13,2.22,2.2,4.33,2.02,7.15-.24,3.66-2.42,5.9-4.2,7.14-2.31,1.61-5.44,2.53-8.59,2.53-3.76,0-7.13-1.29-9.22-3.53-1.86-1.99-2.69-4.61-2.48-7.78.11-1.61.78-3.35,1.49-5.19.86-2.23,1.75-4.53,1.75-6.91,0-4.65-3.1-6.16-4.6-6.16h-25.99c-3.67,0-6.65-2.98-6.65-6.65v-25.99s0-29.42,0-29.42v-25.99c0-3.67,2.98-6.65,6.65-6.65M51.58,16.43c-4.03,0-7.3,3.27-7.3,7.3v25.99s0,29.42,0,29.42v25.99c0,4.03,3.27,7.3,7.3,7.3h25.99c.94,0,3.96.99,3.96,5.51,0,4.18-2.99,8.34-3.24,12.06-.56,8.22,5.8,12.01,12.35,12.01s12.99-3.63,13.43-10.28c.39-5.91-4.35-8.76-4.35-15.02,0-3.83,1.14-4.34,3.18-4.34.73,0,1.59.07,2.54.07h27.54c4.03,0,7.3-3.27,7.3-7.3v-6.02s0-12.78,0-12.78v-7.19s0-3.75,0-3.75c-.28-1.89-1.15-3.78-3.55-3.78-.17,0-.35,0-.54.03-2.02.21-7.36,5.33-10.54,5.33-20.92,0-19.18-27.93-.2-27.93,2,0,4.06,1.05,6.2,1.93.79.33,1.62.48,2.42.48,2.74,0,5.32-1.76,6.14-4.55.04-.14.06-.23.06-.27v-12.24s0-10.65,0-10.65c0-4.03-3.27-7.3-7.3-7.3h-29.32s-.13.02-.27.06c-3.61,1.07-5.5,5.08-4.07,8.56.88,2.14,1.93,4.2,1.93,6.2,0,9.68-7.25,14.87-14.37,14.87-6.84,0-13.56-4.81-13.56-15.07,0-3.18,5.12-8.52,5.33-10.54.3-2.81-1.73-3.79-3.75-4.09h-23.32Z"/>
      </g>
    </g>
  </g>
</svg>