<?xml version="1.0" encoding="UTF-8"?>
<svg xmlns="http://www.w3.org/2000/svg" xmlns:xlink="http://www.w3.org/1999/xlink" viewBox="0 0 184.55 184.55">
  <defs>
    <style>
      .cls-1 {
        fill: url(#radial-gradient-2);
      }

      .cls-2 {
        fill: url(#radial-gradient);
      }

      .cls-3 {
        fill: #191919;
        opacity: .43;
      }

      .cls-4 {
        fill: #fcf3e4;
      }

      .cls-5 {
        opacity: .74;
      }
    </style>
    <radialGradient id="radial-gradient" cx="3539.91" cy="147.97" fx="3539.91" fy="147.97" r="47.19" gradientTransform="translate(3633.29 88.23) rotate(180) scale(1 -.43)" gradientUnits="userSpaceOnUse">
      <stop offset="0" stop-color="#271103" stop-opacity=".7"/>
      <stop offset=".54" stop-color="#0c0500" stop-opacity=".22"/>
      <stop offset=".94" stop-color="#000" stop-opacity="0"/>
    </radialGradient>
    <radialGradient id="radial-gradient-2" cx="3539.91" cy="147.97" fx="3539.91" fy="147.97" gradientTransform="translate(-3446.52 88.23) scale(1 .43)" xlink:href="#radial-gradient"/>
  </defs>
  <g id="pin_grey_left">
    <g>
      <ellipse class="cls-2" cx="93.38" cy="152.88" rx="61.49" ry="21.66"/>
      <g class="cls-5">
        <path class="cls-4" d="M54.24,54.69c2.12-.87,4.18-1.92,6.16-1.92,8.98,0,14.08,6.29,14.72,12.88.74-7.49-4.45-15.7-14.72-15.7-1.99,0-4.04,1.05-6.16,1.92-3.46,1.42-7.46-.46-8.52-4.05-.04-.14-.06-.23-.06-.27v2.82s.02.13.06.27c1.06,3.59,5.05,5.47,8.52,4.05Z"/>
        <path class="cls-4" d="M112.14,34.1c.06-.65.09-1.32.09-2.02,0-3.16-5.09-8.47-5.3-10.48-.03-.27-.03-.51-.02-.75-.12,1.37.08,3.09.23,4.54.16,1.55,3.66,5.93,4.99,8.71Z"/>
        <path class="cls-4" d="M108.05,18.54c-.56.24-.88.83-1.03,1.6.17-.69.54-1.21,1.03-1.6Z"/>
        <path class="cls-4" d="M107.25,132.85c-1.47,13.36-23.84,12.04-25.51.05-.09.66-.13,1.35-.08,2.09.89,13.36,26.73,14.46,25.63-1.72,0-.14-.03-.28-.05-.42Z"/>
        <path class="cls-4" d="M85.91,118.56c.05-.43.08-.86.08-1.33,0-5.18-2.1-4.25-5.69-4.25h-27.38c-4.01,0-7.26-3.25-7.26-7.26v2.82c0,4.01,3.25,7.26,7.26,7.26h27.38c3.2,0,5.21-.73,5.61,2.75Z"/>
        <path class="cls-4" d="M133.85,112.98h-25.84c-.93,0-3.93.99-3.93,5.48,0,.48.04.95.11,1.43.55-3.31,3-4.09,3.82-4.09h25.84c4.01,0,7.26-3.25,7.26-7.26v-2.82c0,4.01-3.25,7.26-7.26,7.26Z"/>
      </g>
      <path class="cls-3" d="M133.85,17.49h-23.19c-2.01.3-4.03,1.27-3.73,4.07.21,2.01,5.3,7.32,5.3,10.48,0,20.8-27.77,19.07-27.77.2,0-1.99,1.05-4.04,1.92-6.16,1.42-3.46-.45-7.46-4.05-8.52-.14-.04-.23-.06-.27-.06h-29.15c-4.01,0-7.26,3.25-7.26,7.26v22.77s.02.13.06.27c1.06,3.59,5.05,5.47,8.52,4.05,2.12-.87,4.18-1.92,6.16-1.92,18.88,0,20.61,27.77-.2,27.77-3.16,0-8.47-5.09-10.48-5.3-2.8-.3-3.77,1.72-4.07,3.73v29.58c0,4.01,3.25,7.26,7.26,7.26h27.38c3.6,0,5.69-.93,5.69,4.25,0,6.23-4.72,9.07-4.33,14.94.89,13.36,26.73,14.46,25.63-1.72-.25-3.69-3.22-7.83-3.22-11.99,0-4.49,3-5.48,3.93-5.48h25.84c4.01,0,7.26-3.25,7.26-7.26V24.74c0-4.01-3.25-7.26-7.26-7.26Z"/>
    </g>
  </g>
  <g id="pin_grey_right">
    <g>
      <ellipse class="cls-1" cx="93.38" cy="152.88" rx="61.49" ry="21.66"/>
      <g class="cls-5">
        <path class="cls-4" d="M132.53,54.69c-2.12-.87-4.18-1.92-6.16-1.92-8.98,0-14.08,6.29-14.72,12.88-.74-7.49,4.45-15.7,14.72-15.7,1.99,0,4.04,1.05,6.16,1.92,3.46,1.42,7.46-.46,8.52-4.05.04-.14.06-.23.06-.27v2.82s-.02.13-.06.27c-1.06,3.59-5.05,5.47-8.52,4.05Z"/>
        <path class="cls-4" d="M74.63,34.1c-.06-.65-.09-1.32-.09-2.02,0-3.16,5.09-8.47,5.3-10.48.03-.27.03-.51.02-.75.12,1.37-.08,3.09-.23,4.54-.16,1.55-3.66,5.93-4.99,8.71Z"/>
        <path class="cls-4" d="M78.72,18.54c.56.24.88.83,1.03,1.6-.17-.69-.54-1.21-1.03-1.6Z"/>
        <path class="cls-4" d="M79.52,132.85c1.47,13.36,23.84,12.04,25.51.05.09.66.13,1.35.08,2.09-.89,13.36-26.73,14.46-25.63-1.72,0-.14.03-.28.05-.42Z"/>
        <path class="cls-4" d="M100.86,118.56c-.05-.43-.08-.86-.08-1.33,0-5.18,2.1-4.25,5.69-4.25h27.38c4.01,0,7.26-3.25,7.26-7.26v2.82c0,4.01-3.25,7.26-7.26,7.26h-27.38c-3.2,0-5.21-.73-5.61,2.75Z"/>
        <path class="cls-4" d="M52.91,112.98h25.84c.93,0,3.93.99,3.93,5.48,0,.48-.04.95-.11,1.43-.55-3.31-3-4.09-3.82-4.09h-25.84c-4.01,0-7.26-3.25-7.26-7.26v-2.82c0,4.01,3.25,7.26,7.26,7.26Z"/>
      </g>
      <path class="cls-3" d="M52.91,17.49h23.19c2.01.3,4.03,1.27,3.73,4.07-.21,2.01-5.3,7.32-5.3,10.48,0,20.8,27.77,19.07,27.77.2,0-1.99-1.05-4.04-1.92-6.16-1.42-3.46.45-7.46,4.05-8.52.14-.04.23-.06.27-.06h29.15c4.01,0,7.26,3.25,7.26,7.26v10.59s0,12.17,0,12.17c0,.04-.02.13-.06.27-1.06,3.59-5.05,5.47-8.52,4.05-2.12-.87-4.18-1.92-6.16-1.92-18.88,0-20.61,27.77.2,27.77,3.16,0,8.47-5.09,10.48-5.3,2.8-.3,3.77,1.72,4.07,3.73v3.73s0,7.15,0,7.15v12.71s0,5.98,0,5.98c0,4.01-3.25,7.26-7.26,7.26h-27.38c-3.6,0-5.69-.93-5.69,4.25,0,6.23,4.72,9.07,4.33,14.94-.89,13.36-26.73,14.46-25.63-1.72.25-3.69,3.22-7.83,3.22-11.99,0-4.49-3-5.48-3.93-5.48h-25.84c-4.01,0-7.26-3.25-7.26-7.26v-25.84s0-29.25,0-29.25v-25.84c0-4.01,3.25-7.26,7.26-7.26Z"/>
    </g>
  </g>
</svg>