<?xml version="1.0" encoding="UTF-8"?>
<svg id="search_icon" xmlns="http://www.w3.org/2000/svg" xmlns:xlink="http://www.w3.org/1999/xlink" viewBox="0 0 10 10">
  <defs>
    <style>
      .cls-1 {
        fill: url(#radial-gradient);
      }

      .cls-2 {
        fill: #727070;
      }

      .cls-3 {
        fill: #bcbcbc;
        opacity: .49;
      }

      .cls-4 {
        fill: #adadad;
      }
    </style>
    <radialGradient id="radial-gradient" cx="3369.19" cy="1.81" fx="3369.19" fy="1.81" r="1.18" gradientTransform="translate(3374.19 6.11) rotate(180) scale(1 -.43)" gradientUnits="userSpaceOnUse">
      <stop offset="0" stop-color="#2a1000" stop-opacity=".7"/>
      <stop offset=".04" stop-color="#280f00" stop-opacity=".66"/>
      <stop offset=".54" stop-color="#0d0400" stop-opacity=".22"/>
      <stop offset=".94" stop-color="#000" stop-opacity="0"/>
    </radialGradient>
  </defs>
  <ellipse class="cls-1" cx="5" cy="7.18" rx="1.53" ry=".54"/>
  <path class="cls-4" d="M4.69,4.35l.19,2.32c.01.14.22.14.23,0l.19-2.32c-.1.03-.2.06-.31.06s-.21-.04-.31-.06Z"/>
  <path class="cls-2" d="M5,1.91c-.69,0-1.25.56-1.25,1.25,0,.58.41,1.05.95,1.19.1.03.2.06.31.06s.21-.04.31-.06c.54-.14.95-.61.95-1.19,0-.69-.56-1.25-1.25-1.25ZM4.82,2.46c-.08.07-.24.16-.39.23-.21.1-.24.28-.31.29-.06,0-.09-.09-.07-.19.03-.16.21-.42.45-.49.03,0,.19-.05.28-.02.11.05.13.11.04.18Z"/>
  <path class="cls-3" d="M4.78,2.28c-.09-.04-.26,0-.28.02-.24.07-.42.33-.45.49-.02.1.01.2.07.19.08,0,.11-.19.31-.29.15-.07.3-.16.39-.23.09-.07.07-.13-.04-.18Z"/>
</svg>