<?xml version="1.0" encoding="UTF-8"?>
<svg id="search_icon" xmlns="http://www.w3.org/2000/svg" viewBox="0 0 10 10">
  <defs>
    <style>
      .cls-1 {
        fill: #2b4a45;
      }
    </style>
  </defs>
  <path class="cls-1" d="M6.51,3.48s.15.15.73.38c.23.09.35.34.24.54l-1.75,3.27c-.09.17-.34.22-.53.09-.32-.21-.52-.38-.65-.44-.23-.12-.62-.22-.4.35s-.44.96-1.03.65c-.33-.17-.67-.55-.39-1.06.23-.44.77.07.49-.68-.08-.21-.5-.36-.85-.45-.26-.07-.43-.31-.39-.55.09-.45.32-.94.52-1.14.32-.32.73.51.88.59s.56.14.83-.27c.27-.5.1-.88-.08-.97s-.26-.05-.56-.09-.49-.35-.36-.58c.1-.18.23-.57.52-.93.09-.11.27-.12.4-.02.31.24.83.63,1.01.64.26.02.38-.2.38-.32s-.11-.22.08-.58.56-.41.95-.2.53.65.36.97-.44.29-.52.44.11.37.11.37Z"/>
</svg>