<?xml version="1.0" encoding="UTF-8"?>
<svg id="search_icon" xmlns="http://www.w3.org/2000/svg" viewBox="0 0 10 10">
  <defs>
    <style>
      .cls-1 {
        fill: #2b4a45;
      }
    </style>
  </defs>
  <path class="cls-1" d="M8.32,7.26c-1.23-1.06-.89-.62-2.12-1.67-.02-.02-.04-.04-.06-.06-.24-.28-.3-.67-.18-1.01.09-.24.14-.49.14-.76,0-1.28-1.11-2.36-2.39-2.36S1.46,2.47,1.46,3.75c0,1.24,1,2.25,2.24,2.26.27,0,.52-.04.77-.12.27-.08.56-.05.8.08.14.08.27.15.35.22,1.23,1.06.83.76,2.06,1.82.25.21.52.32.7.11l.06-.06c.18-.21.14-.59-.11-.8ZM2.12,3.7c0-1.17.9-1.68,1.6-1.68s1.64.5,1.64,1.68c0,.69-.5,1.74-1.64,1.74-.69,0-1.6-.81-1.6-1.74Z"/>
</svg>